<svg width="66" height="29" viewBox="0 0 66 29" fill="none" xmlns="http://www.w3.org/2000/svg">
<path d="M10.23 13.414C10.01 13.568 8.8 14.47 7.458 15.504C6.644 16.12 4.224 17.704 3.608 18.034C2.332 18.694 1.65 18.804 1.21 18.43C0.946 18.21 0.946 18.21 0.946 17.66C0.946 17.088 1.012 16.846 1.452 15.614C1.716 14.888 2.618 12.886 2.794 12.688C2.838 12.622 3.102 12.49 3.366 12.402C5.17 11.742 8.778 8.288 10.714 5.34C11.902 3.536 12.518 1.864 12.232 1.182C12.122 0.895999 11.924 0.763999 11.682 0.763999H11.66C11.088 0.742 10.164 1.358 8.932 2.59C7.216 4.328 5.654 6.33 4.246 8.596C2.134 12.006 0.814 14.734 0.286 16.802C0.044 17.77 0.11 18.364 0.55 18.87C0.682 19.002 0.924 19.2 1.1 19.266C2.112 19.728 3.41 19.2 6.886 16.824C7.832 16.186 10.362 14.272 10.604 14.008C10.846 13.766 10.868 13.502 10.626 13.348C10.472 13.26 10.428 13.26 10.23 13.414ZM4.818 9.08C5.896 7.408 6.402 6.704 7.59 5.23C8.646 3.91 10.362 2.216 10.934 1.864C11.198 1.71 11.418 1.578 11.462 1.578C11.682 1.578 11.088 3.294 10.582 4.108C9.592 5.692 9.306 6.066 7.986 7.562C7.106 8.552 5.654 9.982 5.104 10.444C4.906 10.576 4.488 10.906 4.158 11.126C3.564 11.544 3.41 11.632 3.41 11.5C3.41 11.434 4.356 9.828 4.818 9.08ZM24.5443 13.304C24.4563 13.084 24.1483 13.084 23.7743 13.304C21.6843 14.58 20.2323 15.416 19.1763 15.812C18.4063 16.098 17.1083 16.538 16.5803 15.944C16.4483 15.768 16.4043 15.636 16.4043 15.35C16.4043 14.998 16.4043 14.976 16.8443 14.624C17.8123 13.876 18.6043 12.908 18.6043 12.512C18.6043 12.226 18.3623 11.984 18.0763 11.984C17.8343 11.984 17.3943 12.204 17.1083 12.424C16.7783 12.732 16.2063 13.502 15.9643 14.008C15.7443 14.492 15.6563 14.58 15.2383 14.844C13.6983 15.768 12.0703 16.406 10.9923 16.472C10.2223 16.516 10.0243 16.45 9.87027 16.076C9.78227 15.834 9.78227 15.768 9.91427 15.328C10.0023 15.042 10.1123 14.8 10.1343 14.778C10.1783 14.756 10.3103 14.778 10.4423 14.822C10.6183 14.888 10.7723 14.866 11.1023 14.778C11.4543 14.668 11.6083 14.558 12.0703 14.096C13.1703 13.018 13.5223 12.226 13.0823 11.808C12.9503 11.676 12.7523 11.61 12.5323 11.61C12.1583 11.632 11.6743 11.83 11.1903 12.226C10.1783 13.04 9.18827 14.58 9.03427 15.614C8.96827 16.032 9.16627 16.626 9.40827 16.868C9.51827 16.978 9.78227 17.11 10.0023 17.198C10.5083 17.352 10.6403 17.352 11.4543 17.22C12.5323 17.022 14.2263 16.362 15.1943 15.768C15.5463 15.548 15.6343 15.526 15.6343 15.724C15.6343 16.076 16.0523 16.582 16.5363 16.824C16.8443 17 17.8783 17 18.5383 16.846C19.5063 16.626 21.9923 15.372 23.8403 14.162C24.5223 13.722 24.6543 13.568 24.5443 13.304ZM11.6083 12.908C11.9383 12.622 12.3123 12.402 12.4223 12.424C12.4223 12.424 12.4223 12.424 12.4223 12.446C12.4223 12.556 11.7623 13.458 11.5203 13.656C11.4103 13.766 11.2123 13.898 11.1023 13.986C10.8603 14.14 10.5963 14.184 10.5963 14.052C10.5963 13.942 11.2563 13.194 11.6083 12.908ZM35.3667 13.326C35.2347 13.216 35.2347 13.216 33.8927 13.524C33.6067 13.59 33.0567 13.7 32.6607 13.788C31.9787 13.92 30.1307 14.514 28.9867 14.954C28.7007 15.064 28.5027 15.108 28.5247 15.064C28.5467 14.998 28.7007 14.778 28.8547 14.536C29.4707 13.59 29.6027 12.93 29.2067 12.6C28.8327 12.248 28.2167 12.38 27.2927 12.952C26.1267 13.7 24.3667 15.394 23.1347 16.978C22.4307 17.88 22.4087 17.902 22.6507 17.484C23.4647 15.966 25.2467 13.04 25.4447 12.864C25.5987 12.754 25.6207 12.402 25.4887 12.27C25.3127 12.094 25.0707 12.16 24.8287 12.468C24.4767 12.93 22.6727 15.834 22.1227 16.824C21.9907 17.066 21.7487 17.462 21.5947 17.726C21.4407 17.99 21.3087 18.21 21.3087 18.232C21.3087 18.254 21.0667 18.672 20.7807 19.2C19.3507 21.818 16.8207 27.12 16.8207 27.516C16.8207 27.582 16.8647 27.692 16.9307 27.758C17.0847 27.912 17.3047 27.912 17.4587 27.758C17.5247 27.692 17.7447 27.296 17.9647 26.856C18.3607 26.086 18.9987 24.876 19.9227 23.204C21.5067 20.3 23.7287 17.22 25.5327 15.416C26.7427 14.228 27.9087 13.348 28.5027 13.194L28.7007 13.15L28.5907 13.436C28.3707 13.964 28.1067 14.382 27.5347 15.064C26.9847 15.724 26.9407 15.746 26.0167 16.208C25.0267 16.736 24.3447 17.132 24.0807 17.374C23.7507 17.682 23.9047 18.21 24.3227 18.21C24.5867 18.21 25.9507 17.484 26.6107 16.956C27.3587 16.406 27.4907 16.34 28.7447 15.856C30.7907 15.064 32.1107 14.646 33.5847 14.36C34.5747 14.14 35.1247 14.008 35.3227 13.876C35.5207 13.766 35.5427 13.458 35.3667 13.326ZM43.5308 13.414C43.3108 13.568 42.1008 14.47 40.7588 15.504C39.9448 16.12 37.5248 17.704 36.9088 18.034C35.6328 18.694 34.9508 18.804 34.5108 18.43C34.2468 18.21 34.2468 18.21 34.2468 17.66C34.2468 17.088 34.3128 16.846 34.7528 15.614C35.0168 14.888 35.9188 12.886 36.0948 12.688C36.1388 12.622 36.4028 12.49 36.6668 12.402C38.4708 11.742 42.0788 8.288 44.0148 5.34C45.2028 3.536 45.8188 1.864 45.5328 1.182C45.4228 0.895999 45.2248 0.763999 44.9828 0.763999H44.9608C44.3888 0.742 43.4648 1.358 42.2328 2.59C40.5168 4.328 38.9548 6.33 37.5468 8.596C35.4348 12.006 34.1148 14.734 33.5868 16.802C33.3448 17.77 33.4108 18.364 33.8508 18.87C33.9828 19.002 34.2248 19.2 34.4008 19.266C35.4128 19.728 36.7108 19.2 40.1868 16.824C41.1328 16.186 43.6628 14.272 43.9048 14.008C44.1468 13.766 44.1688 13.502 43.9268 13.348C43.7728 13.26 43.7288 13.26 43.5308 13.414ZM38.1188 9.08C39.1968 7.408 39.7028 6.704 40.8908 5.23C41.9468 3.91 43.6628 2.216 44.2348 1.864C44.4988 1.71 44.7188 1.578 44.7628 1.578C44.9828 1.578 44.3888 3.294 43.8828 4.108C42.8928 5.692 42.6068 6.066 41.2868 7.562C40.4068 8.552 38.9548 9.982 38.4048 10.444C38.2068 10.576 37.7888 10.906 37.4588 11.126C36.8648 11.544 36.7108 11.632 36.7108 11.5C36.7108 11.434 37.6568 9.828 38.1188 9.08ZM54.083 13.458C54.017 13.37 53.907 13.304 53.841 13.304C53.797 13.304 53.159 13.722 52.455 14.206C49.903 15.944 48.869 16.472 47.989 16.45C47.109 16.45 46.757 16.098 46.823 15.372C46.867 14.866 47.109 14.272 47.593 13.568C47.989 12.996 48.033 12.798 47.791 12.578C47.593 12.402 47.395 12.49 46.977 12.886C46.779 13.084 46.603 13.238 46.581 13.238C46.559 13.238 46.471 13.106 46.405 12.93C46.251 12.534 45.943 12.358 45.459 12.358C44.535 12.358 43.413 13.37 42.753 14.8C42.379 15.614 42.247 16.252 42.379 16.582C42.489 16.846 42.797 17.044 43.083 17.044C43.523 17.044 44.249 16.538 45.371 15.482C45.745 15.13 46.075 14.844 46.075 14.844C46.097 14.866 46.075 15.02 46.031 15.218C45.855 16.208 46.449 16.978 47.527 17.198C48.649 17.418 49.859 16.89 52.807 14.866C54.149 13.964 54.347 13.744 54.083 13.458ZM45.767 13.92C45.613 14.206 44.513 15.284 43.809 15.812C43.523 16.032 43.237 16.208 43.215 16.208C42.973 16.208 43.347 15.152 43.875 14.36C44.337 13.656 45.041 13.128 45.459 13.084C45.547 13.084 45.635 13.106 45.701 13.15C45.877 13.304 45.921 13.656 45.767 13.92ZM64.4222 13.348C63.6962 13.524 60.8362 14.866 58.6362 16.032C57.9542 16.406 57.3602 16.714 57.3382 16.714C57.2942 16.714 57.4922 16.274 57.7562 15.724C58.3282 14.58 58.7902 13.304 58.7902 12.886C58.7902 12.336 58.3502 12.116 57.9102 12.446C57.7782 12.534 57.0522 13.238 56.2822 14.008C55.4902 14.756 54.6542 15.57 54.3902 15.768C53.9062 16.164 53.4002 16.472 53.2242 16.472C53.0042 16.472 53.2682 15.548 53.8182 14.536C54.2362 13.788 54.8962 12.754 55.0942 12.6C55.2702 12.446 55.2262 12.226 55.0062 12.072C54.9182 12.028 54.8742 11.984 54.8082 12.006C54.7642 12.006 54.6982 12.028 54.6102 12.116C54.3242 12.314 53.4442 13.634 52.9822 14.514C52.5202 15.46 52.3442 16.01 52.4102 16.494C52.4542 16.978 52.7182 17.242 53.1802 17.242C53.8842 17.242 54.7422 16.626 56.4802 14.866C57.1622 14.184 57.7342 13.656 57.7562 13.678C57.8222 13.722 57.4922 14.492 56.8542 15.79C55.9522 17.594 56.0842 17.44 54.4122 18.43C49.5722 21.224 46.6462 23.666 45.5682 25.778C44.9742 26.966 45.1722 27.934 46.0522 28.22C46.4482 28.33 47.1742 28.264 47.6582 28.066C48.6262 27.648 49.7922 26.79 51.1342 25.426C52.7622 23.798 54.3242 21.664 56.2822 18.474C56.5462 18.034 56.5902 18.012 57.8442 17.33C59.6042 16.362 63.1022 14.646 63.9822 14.294C64.8842 13.942 65.0382 13.854 65.0382 13.634C65.0382 13.304 64.8622 13.238 64.4222 13.348ZM55.0282 19.024C54.9842 19.156 53.7302 21.048 53.3342 21.576C53.1802 21.774 52.9602 22.082 52.8282 22.28C51.8822 23.578 50.1002 25.492 49.1982 26.196C48.3842 26.812 48.0762 27.01 47.6142 27.23C47.1082 27.472 46.5142 27.582 46.2282 27.45C45.7222 27.23 46.0302 26.218 46.9542 25.052C48.3402 23.336 50.4302 21.686 53.8402 19.64C54.4342 19.266 54.9622 18.958 55.0062 18.936C55.0062 18.936 55.0282 18.914 55.0282 18.936C55.0502 18.936 55.0502 18.958 55.0282 19.024Z" fill="white"/>
</svg>
